<svg width="344" height="55" viewBox="0 0 344 55" fill="none" xmlns="http://www.w3.org/2000/svg">
<path d="M19.719 10.2756V44.7244C19.719 45.3734 19.1928 45.901 18.5456 45.901C17.8984 45.901 17.3722 45.3734 17.3722 44.7244V10.2756C17.3722 9.62657 17.8984 9.09895 18.5456 9.09895C19.1928 9.09895 19.719 9.62393 19.719 10.2756ZM41.7085 9.09895C41.0613 9.09895 40.5351 9.62393 40.5351 10.2756V44.7244C40.5351 45.3734 41.0613 45.901 41.7085 45.901C42.3557 45.901 42.8819 45.3734 42.8819 44.7244V10.2756C42.8819 9.62657 42.3557 9.09895 41.7085 9.09895ZM105.407 9.09895C104.759 9.09895 104.233 9.62393 104.233 10.2756V44.7244C104.233 45.3734 104.759 45.901 105.407 45.901C106.054 45.901 106.58 45.3734 106.58 44.7244V10.2756C106.58 9.62657 106.054 9.09895 105.407 9.09895ZM169.105 9.09895C168.457 9.09895 167.931 9.62393 167.931 10.2756V44.7244C167.931 45.3734 168.457 45.901 169.105 45.901C169.752 45.901 170.278 45.3734 170.278 44.7244V10.2756C170.278 9.62657 169.752 9.09895 169.105 9.09895ZM215.43 9.09895C214.783 9.09895 214.257 9.62393 214.257 10.2756V44.7244C214.257 45.3734 214.783 45.901 215.43 45.901C216.078 45.901 216.604 45.3734 216.604 44.7244V10.2756C216.604 9.62657 216.078 9.09895 215.43 9.09895ZM244.384 9.09895C243.737 9.09895 243.211 9.62393 243.211 10.2756V44.7244C243.211 45.3734 243.737 45.901 244.384 45.901C245.031 45.901 245.558 45.3734 245.558 44.7244V10.2756C245.558 9.62657 245.031 9.09895 244.384 9.09895ZM273.338 9.09895C272.691 9.09895 272.164 9.62393 272.164 10.2756V44.7244C272.164 45.3734 272.691 45.901 273.338 45.901C273.985 45.901 274.511 45.3734 274.511 44.7244V10.2756C274.511 9.62657 273.985 9.09895 273.338 9.09895ZM296.501 9.09895C295.854 9.09895 295.327 9.62393 295.327 10.2756V44.7244C295.327 45.3734 295.854 45.901 296.501 45.901C297.148 45.901 297.674 45.3734 297.674 44.7244V10.2756C297.674 9.62657 297.148 9.09895 296.501 9.09895ZM12.7549 0.00262462C12.1077 0.00262462 11.5815 0.527621 11.5815 1.17924V53.8234C11.5815 54.4724 12.1077 55 12.7549 55C13.4021 55 13.9283 54.4724 13.9283 53.8234V1.17924C13.9283 0.530259 13.4021 0.00262462 12.7549 0.00262462ZM59.0807 0.00262462C58.4335 0.00262462 57.9073 0.527621 57.9073 1.17924V53.8234C57.9073 54.4724 58.4335 55 59.0807 55C59.7279 55 60.2541 54.4724 60.2541 53.8234V1.17924C60.2541 0.530259 59.7279 0.00262462 59.0807 0.00262462ZM35.9178 0.00262462C35.2706 0.00262462 34.7444 0.527621 34.7444 1.17924V53.8234C34.7444 54.4724 35.2706 55 35.9178 55C36.565 55 37.0912 54.4724 37.0912 53.8234V1.17924C37.0912 0.530259 36.565 0.00262462 35.9178 0.00262462ZM93.8251 0.00262462C93.1779 0.00262462 92.6517 0.527621 92.6517 1.17924V53.8234C92.6517 54.4724 93.1779 55 93.8251 55C94.4723 55 94.9985 54.4724 94.9985 53.8234V1.17924C94.9985 0.530259 94.4723 0.00262462 93.8251 0.00262462ZM157.523 0.00262462C156.876 0.00262462 156.35 0.527621 156.35 1.17924V53.8234C156.35 54.4724 156.876 55 157.523 55C158.17 55 158.697 54.4724 158.697 53.8234V1.17924C158.697 0.530259 158.17 0.00262462 157.523 0.00262462ZM209.64 0.00262462C208.993 0.00262462 208.466 0.527621 208.466 1.17924V53.8234C208.466 54.4724 208.993 55 209.64 55C210.287 55 210.813 54.4724 210.813 53.8234V1.17924C210.813 0.530259 210.287 0.00262462 209.64 0.00262462ZM238.593 0.00262462C237.946 0.00262462 237.42 0.527621 237.42 1.17924V53.8234C237.42 54.4724 237.946 55 238.593 55C239.241 55 239.767 54.4724 239.767 53.8234V1.17924C239.767 0.530259 239.241 0.00262462 238.593 0.00262462ZM267.547 0.00262462C266.9 0.00262462 266.374 0.527621 266.374 1.17924V53.8234C266.374 54.4724 266.9 55 267.547 55C268.194 55 268.72 54.4724 268.72 53.8234V1.17924C268.72 0.530259 268.194 0.00262462 267.547 0.00262462ZM30.1271 16.8999C29.4799 16.8999 28.9537 17.4249 28.9537 18.0765V36.9234C28.9537 37.5724 29.4799 38.1001 30.1271 38.1001C30.7743 38.1001 31.3005 37.5724 31.3005 36.9234V18.0765C31.3005 17.4276 30.7743 16.8999 30.1271 16.8999ZM64.8715 16.8999C64.2242 16.8999 63.6981 17.4249 63.6981 18.0765V36.9234C63.6981 37.5724 64.2242 38.1001 64.8715 38.1001C65.5187 38.1001 66.0449 37.5724 66.0449 36.9234V18.0765C66.0449 17.4276 65.5187 16.8999 64.8715 16.8999ZM128.57 16.8999C127.922 16.8999 127.396 17.4249 127.396 18.0765V36.9234C127.396 37.5724 127.922 38.1001 128.57 38.1001C129.217 38.1001 129.743 37.5724 129.743 36.9234V18.0765C129.743 17.4276 129.217 16.8999 128.57 16.8999ZM192.268 16.8999C191.62 16.8999 191.094 17.4249 191.094 18.0765V36.9234C191.094 37.5724 191.62 38.1001 192.268 38.1001C192.915 38.1001 193.441 37.5724 193.441 36.9234V18.0765C193.441 17.4276 192.915 16.8999 192.268 16.8999ZM227.012 16.8999C226.365 16.8999 225.839 17.4249 225.839 18.0765V36.9234C225.839 37.5724 226.365 38.1001 227.012 38.1001C227.659 38.1001 228.185 37.5724 228.185 36.9234V18.0765C228.185 17.4276 227.659 16.8999 227.012 16.8999ZM255.966 16.8999C255.318 16.8999 254.792 17.4249 254.792 18.0765V36.9234C254.792 37.5724 255.318 38.1001 255.966 38.1001C256.613 38.1001 257.139 37.5724 257.139 36.9234V18.0765C257.139 17.4276 256.613 16.8999 255.966 16.8999ZM284.919 16.8999C284.272 16.8999 283.746 17.4249 283.746 18.0765V36.9234C283.746 37.5724 284.272 38.1001 284.919 38.1001C285.566 38.1001 286.093 37.5724 286.093 36.9234V18.0765C286.093 17.4276 285.566 16.8999 284.919 16.8999ZM308.082 16.8999C307.435 16.8999 306.909 17.4249 306.909 18.0765V36.9234C306.909 37.5724 307.435 38.1001 308.082 38.1001C308.729 38.1001 309.256 37.5724 309.256 36.9234V18.0765C309.256 17.4276 308.729 16.8999 308.082 16.8999ZM82.2436 16.8999C81.5964 16.8999 81.0702 17.4249 81.0702 18.0765V36.9234C81.0702 37.5724 81.5964 38.1001 82.2436 38.1001C82.8909 38.1001 83.4171 37.5724 83.4171 36.9234V18.0765C83.4171 17.4276 82.8909 16.8999 82.2436 16.8999ZM140.151 16.8999C139.504 16.8999 138.978 17.4249 138.978 18.0765V36.9234C138.978 37.5724 139.504 38.1001 140.151 38.1001C140.798 38.1001 141.324 37.5724 141.324 36.9234V18.0765C141.324 17.4276 140.798 16.8999 140.151 16.8999ZM203.849 16.8999C203.202 16.8999 202.676 17.4249 202.676 18.0765V36.9234C202.676 37.5724 203.202 38.1001 203.849 38.1001C204.496 38.1001 205.022 37.5724 205.022 36.9234V18.0765C205.022 17.4276 204.496 16.8999 203.849 16.8999ZM232.803 16.8999C232.155 16.8999 231.629 17.4249 231.629 18.0765V36.9234C231.629 37.5724 232.155 38.1001 232.803 38.1001C233.45 38.1001 233.976 37.5724 233.976 36.9234V18.0765C233.976 17.4276 233.45 16.8999 232.803 16.8999ZM261.756 16.8999C261.109 16.8999 260.583 17.4249 260.583 18.0765V36.9234C260.583 37.5724 261.109 38.1001 261.756 38.1001C262.404 38.1001 262.93 37.5724 262.93 36.9234V18.0765C262.93 17.4276 262.404 16.8999 261.756 16.8999ZM290.71 16.8999C290.063 16.8999 289.537 17.4249 289.537 18.0765V36.9234C289.537 37.5724 290.063 38.1001 290.71 38.1001C291.357 38.1001 291.883 37.5724 291.883 36.9234V18.0765C291.883 17.4276 291.357 16.8999 290.71 16.8999ZM313.873 16.8999C313.226 16.8999 312.7 17.4249 312.7 18.0765V36.9234C312.7 37.5724 313.226 38.1001 313.873 38.1001C314.52 38.1001 315.046 37.5724 315.046 36.9234V18.0765C315.046 17.4276 314.52 16.8999 313.873 16.8999ZM6.96414 16.8999C6.31692 16.8999 5.79073 17.4249 5.79073 18.0765V36.9234C5.79073 37.5724 6.31692 38.1001 6.96414 38.1001C7.61135 38.1001 8.13754 37.5724 8.13754 36.9234V18.0765C8.13754 17.4276 7.61135 16.8999 6.96414 16.8999ZM337.036 16.8999C336.389 16.8999 335.862 17.4249 335.862 18.0765V36.9234C335.862 37.5724 336.389 38.1001 337.036 38.1001C337.683 38.1001 338.209 37.5724 338.209 36.9234V18.0765C338.209 17.4276 337.683 16.8999 337.036 16.8999ZM331.245 9.09895C330.598 9.09895 330.072 9.62393 330.072 10.2756V44.7244C330.072 45.3734 330.598 45.901 331.245 45.901C331.892 45.901 332.419 45.3734 332.419 44.7244V10.2756C332.419 9.62657 331.892 9.09895 331.245 9.09895ZM325.454 0C324.807 0 324.281 0.52498 324.281 1.1766V53.8207C324.281 54.4697 324.807 54.9974 325.454 54.9974C326.102 54.9974 326.628 54.4697 326.628 53.8207V1.1766C326.628 0.527618 326.102 0 325.454 0ZM319.664 16.8999C319.016 16.8999 318.49 17.4249 318.49 18.0765V36.9234C318.49 37.5724 319.016 38.1001 319.664 38.1001C320.311 38.1001 320.837 37.5724 320.837 36.9234V18.0765C320.837 17.4276 320.311 16.8999 319.664 16.8999ZM24.3363 22.7487C23.6891 22.7487 23.1629 23.2737 23.1629 23.9253V31.0747C23.1629 31.7237 23.6891 32.2513 24.3363 32.2513C24.9835 32.2513 25.5097 31.7237 25.5097 31.0747V23.9253C25.5097 23.2763 24.9835 22.7487 24.3363 22.7487ZM47.4993 22.7487C46.852 22.7487 46.3259 23.2737 46.3259 23.9253V31.0747C46.3259 31.7237 46.852 32.2513 47.4993 32.2513C48.1465 32.2513 48.6727 31.7237 48.6727 31.0747V23.9253C48.6727 23.2763 48.1465 22.7487 47.4993 22.7487ZM116.988 22.7487C116.341 22.7487 115.815 23.2737 115.815 23.9253V31.0747C115.815 31.7237 116.341 32.2513 116.988 32.2513C117.635 32.2513 118.161 31.7237 118.161 31.0747V23.9253C118.161 23.2763 117.635 22.7487 116.988 22.7487ZM76.4529 9.09895C75.8057 9.09895 75.2795 9.62393 75.2795 10.2756V44.7244C75.2795 45.3734 75.8057 45.901 76.4529 45.901C77.1001 45.901 77.6263 45.3734 77.6263 44.7244V10.2756C77.6263 9.62657 77.1001 9.09895 76.4529 9.09895ZM122.779 9.09895C122.132 9.09895 121.605 9.62393 121.605 10.2756V44.7244C121.605 45.3734 122.132 45.901 122.779 45.901C123.426 45.901 123.952 45.3734 123.952 44.7244V10.2756C123.952 9.62657 123.426 9.09895 122.779 9.09895ZM186.477 9.09895C185.83 9.09895 185.303 9.62393 185.303 10.2756V44.7244C185.303 45.3734 185.83 45.901 186.477 45.901C187.124 45.901 187.65 45.3734 187.65 44.7244V10.2756C187.65 9.62657 187.124 9.09895 186.477 9.09895ZM70.6622 0C70.015 0 69.4888 0.52498 69.4888 1.1766V53.8207C69.4888 54.4697 70.015 54.9974 70.6622 54.9974C71.3094 54.9974 71.8356 54.4697 71.8356 53.8207V1.1766C71.8356 0.527618 71.3094 0 70.6622 0ZM145.942 0C145.294 0 144.768 0.52498 144.768 1.1766V53.8207C144.768 54.4697 145.294 54.9974 145.942 54.9974C146.589 54.9974 147.115 54.4697 147.115 53.8207V1.1766C147.115 0.527618 146.589 0 145.942 0ZM111.197 0C110.55 0 110.024 0.52498 110.024 1.1766V53.8207C110.024 54.4697 110.55 54.9974 111.197 54.9974C111.845 54.9974 112.371 54.4697 112.371 53.8207V1.1766C112.371 0.527618 111.845 0 111.197 0ZM174.895 0C174.248 0 173.722 0.52498 173.722 1.1766V53.8207C173.722 54.4697 174.248 54.9974 174.895 54.9974C175.543 54.9974 176.069 54.4697 176.069 53.8207V1.1766C176.069 0.527618 175.543 0 174.895 0ZM99.6158 16.8999C98.9686 16.8999 98.4424 17.4249 98.4424 18.0765V36.9234C98.4424 37.5724 98.9686 38.1001 99.6158 38.1001C100.263 38.1001 100.789 37.5724 100.789 36.9234V18.0765C100.789 17.4276 100.263 16.8999 99.6158 16.8999ZM151.732 16.8999C151.085 16.8999 150.559 17.4249 150.559 18.0765V36.9234C150.559 37.5724 151.085 38.1001 151.732 38.1001C152.38 38.1001 152.906 37.5724 152.906 36.9234V18.0765C152.906 17.4276 152.38 16.8999 151.732 16.8999ZM163.314 16.8999C162.667 16.8999 162.14 17.4249 162.14 18.0765V36.9234C162.14 37.5724 162.667 38.1001 163.314 38.1001C163.961 38.1001 164.487 37.5724 164.487 36.9234V18.0765C164.487 17.4276 163.961 16.8999 163.314 16.8999ZM53.29 16.8999C52.6428 16.8999 52.1166 17.4249 52.1166 18.0765V36.9234C52.1166 37.5724 52.6428 38.1001 53.29 38.1001C53.9372 38.1001 54.4634 37.5724 54.4634 36.9234V18.0765C54.4634 17.4276 53.9372 16.8999 53.29 16.8999ZM88.0344 22.7487C87.3872 22.7487 86.861 23.2737 86.861 23.9253V31.0747C86.861 31.7237 87.3872 32.2513 88.0344 32.2513C88.6816 32.2513 89.2078 31.7237 89.2078 31.0747V23.9253C89.2078 23.2763 88.6816 22.7487 88.0344 22.7487ZM134.36 22.7487C133.713 22.7487 133.187 23.2737 133.187 23.9253V31.0747C133.187 31.7237 133.713 32.2513 134.36 32.2513C135.007 32.2513 135.534 31.7237 135.534 31.0747V23.9253C135.534 23.2763 135.007 22.7487 134.36 22.7487ZM198.058 22.7487C197.411 22.7487 196.885 23.2737 196.885 23.9253V31.0747C196.885 31.7237 197.411 32.2513 198.058 32.2513C198.706 32.2513 199.232 31.7237 199.232 31.0747V23.9253C199.232 23.2763 198.706 22.7487 198.058 22.7487ZM180.686 22.7487C180.039 22.7487 179.513 23.2737 179.513 23.9253V31.0747C179.513 31.7237 180.039 32.2513 180.686 32.2513C181.333 32.2513 181.859 31.7237 181.859 31.0747V23.9253C181.859 23.2763 181.333 22.7487 180.686 22.7487ZM221.221 22.7487C220.574 22.7487 220.048 23.2737 220.048 23.9253V31.0747C220.048 31.7237 220.574 32.2513 221.221 32.2513C221.868 32.2513 222.395 31.7237 222.395 31.0747V23.9253C222.395 23.2763 221.868 22.7487 221.221 22.7487ZM250.175 22.7487C249.528 22.7487 249.001 23.2737 249.001 23.9253V31.0747C249.001 31.7237 249.528 32.2513 250.175 32.2513C250.822 32.2513 251.348 31.7237 251.348 31.0747V23.9253C251.348 23.2763 250.822 22.7487 250.175 22.7487ZM342.827 22.7487C342.179 22.7487 341.653 23.2737 341.653 23.9253V31.0747C341.653 31.7237 342.179 32.2513 342.827 32.2513C343.474 32.2513 344 31.7237 344 31.0747V23.9253C344 23.2763 343.474 22.7487 342.827 22.7487ZM1.17341 22.7487C0.526191 22.7487 0 23.2737 0 23.9253V31.0747C0 31.7237 0.526191 32.2513 1.17341 32.2513C1.82062 32.2513 2.34681 31.7237 2.34681 31.0747V23.9253C2.34681 23.2763 1.82062 22.7487 1.17341 22.7487ZM279.129 22.7487C278.481 22.7487 277.955 23.2737 277.955 23.9253V31.0747C277.955 31.7237 278.481 32.2513 279.129 32.2513C279.776 32.2513 280.302 31.7237 280.302 31.0747V23.9253C280.302 23.2763 279.776 22.7487 279.129 22.7487ZM302.291 22.7487C301.644 22.7487 301.118 23.2737 301.118 23.9253V31.0747C301.118 31.7237 301.644 32.2513 302.291 32.2513C302.939 32.2513 303.465 31.7237 303.465 31.0747V23.9253C303.465 23.2763 302.939 22.7487 302.291 22.7487Z" fill="white"/>
</svg>
